name rise30.6535peak61.5555fall82.9339.mot
datacolumns 19
datarows 36
range 21.82325000000000 21.88157500000000
endheader
time	ground_force1_vx	ground_force1_vy	ground_force1_vz	ground_force1_px	ground_force1_py	ground_force1_pz	ground_force2_vx	ground_force2_vy	ground_force2_vz	ground_force2_px	ground_force2_py	ground_force2_pz	ground_torque1_x	ground_torque1_y	ground_torque1_z	ground_torque2_x	ground_torque2_y	ground_torque2_z	
21.82325000000000	65.73251800000000	780.33384999999998	55.32808400000000	0.36329500000000	0.00000000000000	0.07714300000000	0.00000000000000	0.00000000000000	0.00000000000000	0.00000000000000	0.00000000000000	0.00000000000000	0.00000000000000	29.65063200000000	0.00000000000000	0.00000000000000	0.00000000000000	0.00000000000000	
21.82491700000000	64.89170300000001	780.97375000000000	55.32824500000000	0.36204400000000	0.00000000000000	0.07722900000000	0.00000000000000	0.00000000000000	0.00000000000000	0.00000000000000	0.00000000000000	0.00000000000000	0.00000000000000	29.62362700000000	0.00000000000000	0.00000000000000	0.00000000000000	0.00000000000000	
21.82659000000000	64.05400400000001	781.51499699999999	55.32458500000000	0.36080000000000	0.00000000000000	0.07731500000000	0.00000000000000	0.00000000000000	0.00000000000000	0.00000000000000	0.00000000000000	0.00000000000000	0.00000000000000	29.59562700000000	0.00000000000000	0.00000000000000	0.00000000000000	0.00000000000000	
21.82824700000000	63.22033300000000	781.95982700000002	55.31727700000000	0.35956200000000	0.00000000000000	0.07740100000000	0.00000000000000	0.00000000000000	0.00000000000000	0.00000000000000	0.00000000000000	0.00000000000000	0.00000000000000	29.56671500000000	0.00000000000000	0.00000000000000	0.00000000000000	0.00000000000000	
21.82991100000000	62.39153300000000	782.31049499999995	55.30645200000000	0.35833100000000	0.00000000000000	0.07748800000000	0.00000000000000	0.00000000000000	0.00000000000000	0.00000000000000	0.00000000000000	0.00000000000000	0.00000000000000	29.53694100000000	0.00000000000000	0.00000000000000	0.00000000000000	0.00000000000000	
21.83158800000000	61.56838000000000	782.56928600000003	55.29220300000000	0.35710700000000	0.00000000000000	0.07757400000000	0.00000000000000	0.00000000000000	0.00000000000000	0.00000000000000	0.00000000000000	0.00000000000000	0.00000000000000	29.50632100000000	0.00000000000000	0.00000000000000	0.00000000000000	0.00000000000000	
21.83324100000000	60.75158200000000	782.73851100000002	55.27458900000000	0.35589100000000	0.00000000000000	0.07766000000000	0.00000000000000	0.00000000000000	0.00000000000000	0.00000000000000	0.00000000000000	0.00000000000000	0.00000000000000	29.47484800000000	0.00000000000000	0.00000000000000	0.00000000000000	0.00000000000000	
21.83491500000000	59.94178400000000	782.82051400000000	55.25363500000000	0.35468200000000	0.00000000000000	0.07774500000000	0.00000000000000	0.00000000000000	0.00000000000000	0.00000000000000	0.00000000000000	0.00000000000000	0.00000000000000	29.44248600000000	0.00000000000000	0.00000000000000	0.00000000000000	0.00000000000000	
21.83658400000000	59.13956800000000	782.81767500000001	55.22934000000000	0.35348200000000	0.00000000000000	0.07783000000000	0.00000000000000	0.00000000000000	0.00000000000000	0.00000000000000	0.00000000000000	0.00000000000000	0.00000000000000	29.40917500000000	0.00000000000000	0.00000000000000	0.00000000000000	0.00000000000000	
21.83824700000000	58.34545600000000	782.73240799999996	55.20167500000000	0.35228900000000	0.00000000000000	0.07791500000000	0.00000000000000	0.00000000000000	0.00000000000000	0.00000000000000	0.00000000000000	0.00000000000000	0.00000000000000	29.37483900000000	0.00000000000000	0.00000000000000	0.00000000000000	0.00000000000000	
21.83991200000000	57.55990900000000	782.56716800000004	55.17059200000000	0.35110600000000	0.00000000000000	0.07799900000000	0.00000000000000	0.00000000000000	0.00000000000000	0.00000000000000	0.00000000000000	0.00000000000000	0.00000000000000	29.33937900000000	0.00000000000000	0.00000000000000	0.00000000000000	0.00000000000000	
21.84157500000000	56.78333300000000	782.32444599999997	55.13602300000000	0.34993000000000	0.00000000000000	0.07808200000000	0.00000000000000	0.00000000000000	0.00000000000000	0.00000000000000	0.00000000000000	0.00000000000000	0.00000000000000	29.30268400000000	0.00000000000000	0.00000000000000	0.00000000000000	0.00000000000000	
21.84325000000000	56.01608000000000	782.00677700000006	55.09788400000000	0.34876300000000	0.00000000000000	0.07816500000000	0.00000000000000	0.00000000000000	0.00000000000000	0.00000000000000	0.00000000000000	0.00000000000000	0.00000000000000	29.26462900000000	0.00000000000000	0.00000000000000	0.00000000000000	0.00000000000000	
21.84490900000000	55.25845200000000	781.61673599999995	55.05608200000000	0.34760500000000	0.00000000000000	0.07824600000000	0.00000000000000	0.00000000000000	0.00000000000000	0.00000000000000	0.00000000000000	0.00000000000000	0.00000000000000	29.22507900000000	0.00000000000000	0.00000000000000	0.00000000000000	0.00000000000000	
21.84657500000000	54.51069800000000	781.15693799999997	55.01051500000000	0.34645500000000	0.00000000000000	0.07832600000000	0.00000000000000	0.00000000000000	0.00000000000000	0.00000000000000	0.00000000000000	0.00000000000000	0.00000000000000	29.18389000000000	0.00000000000000	0.00000000000000	0.00000000000000	0.00000000000000	
21.84824600000000	53.77302700000000	780.63003900000001	54.96107400000000	0.34531300000000	0.00000000000000	0.07840600000000	0.00000000000000	0.00000000000000	0.00000000000000	0.00000000000000	0.00000000000000	0.00000000000000	0.00000000000000	29.14091500000000	0.00000000000000	0.00000000000000	0.00000000000000	0.00000000000000	
21.84991200000000	53.04560000000000	780.03873499999997	54.90765100000000	0.34418000000000	0.00000000000000	0.07848300000000	0.00000000000000	0.00000000000000	0.00000000000000	0.00000000000000	0.00000000000000	0.00000000000000	0.00000000000000	29.09600100000000	0.00000000000000	0.00000000000000	0.00000000000000	0.00000000000000	
21.85157800000000	52.32854000000000	779.38575800000001	54.85013600000000	0.34305400000000	0.00000000000000	0.07856000000000	0.00000000000000	0.00000000000000	0.00000000000000	0.00000000000000	0.00000000000000	0.00000000000000	0.00000000000000	29.04899500000000	0.00000000000000	0.00000000000000	0.00000000000000	0.00000000000000	
21.85324600000000	51.62193300000000	778.67388000000005	54.78842600000000	0.34193600000000	0.00000000000000	0.07863500000000	0.00000000000000	0.00000000000000	0.00000000000000	0.00000000000000	0.00000000000000	0.00000000000000	0.00000000000000	28.99974700000000	0.00000000000000	0.00000000000000	0.00000000000000	0.00000000000000	
21.85491100000000	50.92583000000000	777.90590399999996	54.72242000000000	0.34082600000000	0.00000000000000	0.07870800000000	0.00000000000000	0.00000000000000	0.00000000000000	0.00000000000000	0.00000000000000	0.00000000000000	0.00000000000000	28.94810700000000	0.00000000000000	0.00000000000000	0.00000000000000	0.00000000000000	
21.85657900000000	50.24025000000000	777.08466399999998	54.65203100000000	0.33972200000000	0.00000000000000	0.07878000000000	0.00000000000000	0.00000000000000	0.00000000000000	0.00000000000000	0.00000000000000	0.00000000000000	0.00000000000000	28.89393100000000	0.00000000000000	0.00000000000000	0.00000000000000	0.00000000000000	
21.85824400000000	49.56518400000000	776.21302400000002	54.57717700000000	0.33862600000000	0.00000000000000	0.07885000000000	0.00000000000000	0.00000000000000	0.00000000000000	0.00000000000000	0.00000000000000	0.00000000000000	0.00000000000000	28.83708200000000	0.00000000000000	0.00000000000000	0.00000000000000	0.00000000000000	
21.85991100000000	48.90059800000000	775.29387099999997	54.49779200000000	0.33753500000000	0.00000000000000	0.07891800000000	0.00000000000000	0.00000000000000	0.00000000000000	0.00000000000000	0.00000000000000	0.00000000000000	0.00000000000000	28.77743000000000	0.00000000000000	0.00000000000000	0.00000000000000	0.00000000000000	
21.86157800000000	48.24643200000000	774.33011499999998	54.41382400000000	0.33645100000000	0.00000000000000	0.07898400000000	0.00000000000000	0.00000000000000	0.00000000000000	0.00000000000000	0.00000000000000	0.00000000000000	0.00000000000000	28.71485500000000	0.00000000000000	0.00000000000000	0.00000000000000	0.00000000000000	
21.86324300000000	47.60261000000000	773.32467899999995	54.32523500000000	0.33537300000000	0.00000000000000	0.07904800000000	0.00000000000000	0.00000000000000	0.00000000000000	0.00000000000000	0.00000000000000	0.00000000000000	0.00000000000000	28.64924700000000	0.00000000000000	0.00000000000000	0.00000000000000	0.00000000000000	
21.86491200000000	46.96903400000000	772.28050199999996	54.23200500000000	0.33430000000000	0.00000000000000	0.07911000000000	0.00000000000000	0.00000000000000	0.00000000000000	0.00000000000000	0.00000000000000	0.00000000000000	0.00000000000000	28.58050800000000	0.00000000000000	0.00000000000000	0.00000000000000	0.00000000000000	
21.86659500000000	46.34559400000000	771.20052699999997	54.13413100000000	0.33323100000000	0.00000000000000	0.07916900000000	0.00000000000000	0.00000000000000	0.00000000000000	0.00000000000000	0.00000000000000	0.00000000000000	0.00000000000000	28.50855100000000	0.00000000000000	0.00000000000000	0.00000000000000	0.00000000000000	
21.86824300000000	45.73216400000000	770.08770300000003	54.03162800000000	0.33216700000000	0.00000000000000	0.07922600000000	0.00000000000000	0.00000000000000	0.00000000000000	0.00000000000000	0.00000000000000	0.00000000000000	0.00000000000000	28.43330500000000	0.00000000000000	0.00000000000000	0.00000000000000	0.00000000000000	
21.86991100000000	45.12861100000000	768.94497400000000	53.92453100000000	0.33110700000000	0.00000000000000	0.07928100000000	0.00000000000000	0.00000000000000	0.00000000000000	0.00000000000000	0.00000000000000	0.00000000000000	0.00000000000000	28.35471000000000	0.00000000000000	0.00000000000000	0.00000000000000	0.00000000000000	
21.87159200000000	44.53479000000000	767.77527699999996	53.81289100000000	0.33005000000000	0.00000000000000	0.07933400000000	0.00000000000000	0.00000000000000	0.00000000000000	0.00000000000000	0.00000000000000	0.00000000000000	0.00000000000000	28.27272200000000	0.00000000000000	0.00000000000000	0.00000000000000	0.00000000000000	
21.87324900000000	43.95055200000000	766.58153400000003	53.69677900000000	0.32899600000000	0.00000000000000	0.07938400000000	0.00000000000000	0.00000000000000	0.00000000000000	0.00000000000000	0.00000000000000	0.00000000000000	0.00000000000000	28.18731100000000	0.00000000000000	0.00000000000000	0.00000000000000	0.00000000000000	
21.87491300000000	43.37574300000000	765.36665200000004	53.57628400000000	0.32794500000000	0.00000000000000	0.07943100000000	0.00000000000000	0.00000000000000	0.00000000000000	0.00000000000000	0.00000000000000	0.00000000000000	0.00000000000000	28.09846100000000	0.00000000000000	0.00000000000000	0.00000000000000	0.00000000000000	
21.87658900000000	42.81020400000000	764.13350900000000	53.45151400000000	0.32689600000000	0.00000000000000	0.07947600000000	0.00000000000000	0.00000000000000	0.00000000000000	0.00000000000000	0.00000000000000	0.00000000000000	0.00000000000000	28.00617100000000	0.00000000000000	0.00000000000000	0.00000000000000	0.00000000000000	
21.87824500000000	42.25377700000000	762.88495699999999	53.32259200000000	0.32584800000000	0.00000000000000	0.07951800000000	0.00000000000000	0.00000000000000	0.00000000000000	0.00000000000000	0.00000000000000	0.00000000000000	0.00000000000000	27.91045400000000	0.00000000000000	0.00000000000000	0.00000000000000	0.00000000000000	
21.87991500000000	41.70630300000000	761.62380900000005	53.18965900000000	0.32480200000000	0.00000000000000	0.07955800000000	0.00000000000000	0.00000000000000	0.00000000000000	0.00000000000000	0.00000000000000	0.00000000000000	0.00000000000000	27.81133800000000	0.00000000000000	0.00000000000000	0.00000000000000	0.00000000000000	
21.88157500000000	41.16762600000000	760.35283900000002	53.05286800000000	0.32375600000000	0.00000000000000	0.07959500000000	0.00000000000000	0.00000000000000	0.00000000000000	0.00000000000000	0.00000000000000	0.00000000000000	0.00000000000000	27.70886500000000	0.00000000000000	0.00000000000000	0.00000000000000	0.00000000000000	
